<svg width="59" height="59" viewBox="0 0 59 59" fill="none" xmlns="http://www.w3.org/2000/svg">
<g clip-path="url(#clip0_488_310)">
<path fill-rule="evenodd" clip-rule="evenodd" d="M46.1537 29.7005C47.6012 27.2776 48.4351 24.4456 48.4351 21.4169C48.4351 12.504 41.2095 5.27844 32.2966 5.27844C31.2936 5.27451 30.2906 5.3689 29.3033 5.55377L29.0595 5.60097V5.27844L25.2048 5.29811L25.193 54.335L29.0673 54.3428V54.0203C30.1136 54.2327 31.1913 54.3428 32.2966 54.3428C41.2095 54.3428 48.4351 47.1173 48.4351 38.2044C48.4429 35.2426 47.6287 32.3398 46.0869 29.8106L46.1537 29.7005ZM29.0634 27.0062V24.5754C29.0634 24.5754 29.0713 24.5872 29.0791 24.5911C30.8295 26.369 33.6929 26.3886 35.4708 24.6344C37.2447 22.884 37.2683 20.0206 35.5141 18.2427C33.7598 16.4648 30.9003 16.4452 29.1224 18.1994L29.0634 18.2584V15.8276C30.0467 15.2573 31.1599 14.9584 32.2966 14.9623C33.3901 14.9623 34.4678 15.2376 35.4236 15.7686C38.5427 17.4954 39.6716 21.4248 37.9409 24.5439C36.2142 27.663 32.2848 28.7919 29.1657 27.0652L29.0634 27.0062ZM31.329 21.4169C31.329 20.882 31.7617 20.4493 32.2966 20.4493C32.8315 20.4493 33.2642 20.882 33.2642 21.4169C33.2642 21.9518 32.8315 22.3884 32.2966 22.3884C31.7617 22.3884 31.329 21.9518 31.329 21.4169ZM33.5356 42.5507C35.9349 41.8663 37.3273 39.3647 36.6429 36.9654C37.2683 36.7923 37.878 36.5799 38.4759 36.3321L38.5231 36.4934C38.9715 38.1218 38.763 39.8603 37.9449 41.3353C36.2142 44.4544 32.2848 45.5794 29.1657 43.8526L29.0673 43.7936V41.3628C30.2277 42.5507 31.9426 43.003 33.5356 42.5507ZM31.5886 37.5436C32.0016 37.5632 32.4146 37.5632 32.8276 37.5514L33.0046 37.5436C33.3507 37.9172 33.3507 38.4954 33.0046 38.8652C32.6388 39.2585 32.0252 39.2782 31.6358 38.9124C31.2425 38.5466 31.2228 37.933 31.5886 37.5436ZM32.4539 50.4685C31.3487 50.4685 30.2749 50.323 29.2561 50.0437L29.0673 49.9886V48.018C31.3683 48.7772 33.8621 48.7024 36.1159 47.8056C41.418 45.7013 44.0061 39.6951 41.9018 34.393C42.4092 34.0154 42.893 33.6102 43.3532 33.1776L43.3807 33.15C44.1399 34.7312 44.5607 36.4973 44.5607 38.3656C44.5607 45.0484 39.1406 50.4685 32.4539 50.4685ZM32.4579 33.685C31.3487 33.685 30.2788 33.5355 29.2601 33.2602L29.0673 33.2051V31.2345C30.0821 31.5688 31.1677 31.7498 32.2966 31.7498C37.9999 31.7458 42.6255 27.1202 42.6216 21.413C42.6177 15.7096 37.9921 11.088 32.2887 11.088C31.2543 11.088 30.2237 11.2453 29.2365 11.5521L29.0634 11.6072V9.9591C30.1647 9.63657 31.3093 9.4753 32.4579 9.4753C39.1445 9.4753 44.5647 14.8954 44.5647 21.5821C44.5647 28.2688 39.1445 33.685 32.4579 33.685Z" fill="#DA3238"/>
<path fill-rule="evenodd" clip-rule="evenodd" d="M23.2499 5.31399L23.2578 54.3351L19.3835 54.3273L19.3953 5.33366L23.2539 5.31006L23.2499 5.31399Z" fill="#DA3238"/>
<path fill-rule="evenodd" clip-rule="evenodd" d="M17.4483 54.3194L17.4404 5.34155L13.5857 5.36515L13.5739 54.3116L17.4483 54.3194Z" fill="#DA3238"/>
<path d="M31.3211 5.30615V9.53055C30.562 9.59742 29.8107 9.74295 29.0752 9.95535V5.59722L29.3033 5.55395C29.441 5.53035 29.5787 5.50282 29.7124 5.48315C29.9405 5.44775 30.1687 5.41629 30.3968 5.38875C30.5187 5.37302 30.6407 5.36122 30.7665 5.34942C30.8688 5.33762 30.9711 5.32975 31.0733 5.32189C31.1559 5.31795 31.2385 5.31009 31.3211 5.30615Z" fill="#A52A2E"/>
<path d="M31.3211 11.1353V15.0371C30.5345 15.1512 29.7714 15.4187 29.0752 15.8238V11.6033L29.2365 11.5522C29.9169 11.3398 30.6131 11.2021 31.3211 11.1353Z" fill="#A52A2E"/>
<path d="M31.3251 25.8303C30.4991 25.6533 29.7163 25.2364 29.0791 24.5913C29.0752 24.5874 29.0713 24.5874 29.0713 24.5834V18.2468L29.1224 18.1996C29.7517 17.5782 30.5187 17.1809 31.3211 17.0039V25.8303H31.3251Z" fill="#A52A2E"/>
<path d="M31.3251 27.7969V31.7027C30.5463 31.6319 29.7911 31.4707 29.0713 31.2347V27.0103L29.1657 27.0653C29.8579 27.4469 30.5895 27.6907 31.3251 27.7969Z" fill="#A52A2E"/>
<path d="M36.6429 36.9653C35.2623 37.3508 33.8031 37.5553 32.2966 37.5553C31.9701 37.5553 31.6476 37.5475 31.3251 37.5278V33.6299C30.6171 33.5669 29.9287 33.4411 29.2601 33.2601L29.0713 33.2051V37.2328V39.2073V41.3667C29.6967 42.0079 30.4833 42.4327 31.3251 42.6175V39.4669C31.6476 39.4866 31.9701 39.4945 32.2966 39.4945C33.8345 39.4945 35.3292 39.3017 36.757 38.9399C36.8632 38.3027 36.8317 37.6301 36.6429 36.9653ZM33.0046 38.8651C32.6388 39.2585 32.0252 39.2781 31.6358 38.9123C31.2425 38.5465 31.2228 37.9329 31.5886 37.5435C32.0016 37.5632 32.4146 37.5632 32.8276 37.5514L33.0046 37.5435C33.3507 37.9172 33.3507 38.4954 33.0046 38.8651Z" fill="#A52A2E"/>
<path d="M31.3251 44.5882V48.4901C30.562 48.4193 29.8029 48.262 29.0673 48.0181V43.7937L29.1657 43.8527C29.8579 44.2382 30.5856 44.4781 31.3251 44.5882Z" fill="#A52A2E"/>
<path d="M31.3251 50.4175V54.3115C31.2385 54.3076 31.152 54.3036 31.0655 54.2958C30.9357 54.2879 30.8098 54.2761 30.6839 54.2643C30.6289 54.2564 30.5738 54.2525 30.5187 54.2446C30.3889 54.2328 30.2591 54.2171 30.1293 54.1974C29.9917 54.1817 29.8501 54.1581 29.7124 54.1384C29.4961 54.103 29.2797 54.0637 29.0673 54.0204V49.9888L29.2561 50.0438C29.9248 50.2287 30.6131 50.3506 31.3251 50.4175Z" fill="#A52A2E"/>
<path d="M42.4643 36.3598C41.3157 37.1465 40.0689 37.8033 38.7512 38.3068C38.763 37.7011 38.6883 37.0914 38.5231 36.4935L38.4759 36.3323C39.7935 35.7816 41.0247 35.0657 42.1417 34.2043C42.0631 34.2673 41.9844 34.3302 41.9018 34.3931C42.1575 35.0421 42.3463 35.699 42.4643 36.3598Z" fill="#A52A2E"/>
<path d="M47.1056 31.7814C47.1056 31.7814 47.1056 31.7853 47.1017 31.7853C46.2442 33.0086 45.2412 34.1178 44.1123 35.0972C43.9235 34.4246 43.6797 33.7717 43.3807 33.1502L43.3532 33.1777C43.3139 33.2131 43.2785 33.2485 43.2391 33.28C44.3365 32.2613 45.2963 31.097 46.0829 29.8108C46.2757 30.1255 46.4566 30.4441 46.6297 30.7705C46.7123 30.9357 46.7949 31.1049 46.8775 31.274C46.9561 31.4392 47.0309 31.6123 47.1056 31.7814Z" fill="#A52A2E"/>
</g>
<defs>
<clipPath id="clip0_488_310">
<rect width="59" height="59" fill="white"/>
</clipPath>
</defs>
</svg>
