<svg width="16" height="27" viewBox="0 0 16 27" fill="none" xmlns="http://www.w3.org/2000/svg">
<g clip-path="url(#clip0_483_288)">
<path d="M8.00004 9.96191C3.58232 9.96191 0 13.4179 0 17.7811C0 23.8098 8.02258 27.0084 8.00004 26.9999C7.97836 27.0085 16 23.8099 16 17.7811C16 13.4205 12.4177 9.96191 8.00004 9.96191ZM8.00004 20.9472C7.40093 20.9469 6.81537 20.7713 6.3174 20.4426C5.81942 20.114 5.43139 19.647 5.20236 19.1008C4.97332 18.5545 4.91358 17.9536 5.03067 17.3738C5.14777 16.7941 5.43644 16.2616 5.8602 15.8437C6.28396 15.4259 6.82378 15.1413 7.4114 15.0261C7.99903 14.911 8.60808 14.9703 9.16154 15.1966C9.71501 15.4229 10.188 15.806 10.5208 16.2976C10.8536 16.7891 11.0313 17.367 11.0313 17.9581C11.0322 18.3513 10.9544 18.7408 10.8024 19.1043C10.6505 19.4677 10.4273 19.798 10.1457 20.0762C9.86406 20.3544 9.52957 20.575 9.16137 20.7253C8.79318 20.8757 8.39852 20.9528 8.00004 20.9524V20.9472Z" fill="#FF6F0F"/>
<path d="M9.80072 0C7.93405 0 6.63342 1.2877 6.42971 2.80791C3.94013 2.12986 1.99039 3.99638 1.99039 6.0484C1.99039 7.61915 3.08491 8.88883 4.54323 9.30094C5.72006 9.63268 7.83877 9.3856 7.83877 9.3856C7.8275 8.87771 8.30151 8.32021 9.03285 7.81232C11.1126 6.36995 12.7382 5.68937 12.9887 3.72192C13.2513 1.66308 11.7028 0 9.80072 0Z" fill="#00A05B"/>
</g>
<defs>
<clipPath id="clip0_483_288">
<rect width="16" height="27" fill="white"/>
</clipPath>
</defs>
</svg>
