<svg width="20" height="19" viewBox="0 0 20 19" fill="none" xmlns="http://www.w3.org/2000/svg">
<path d="M12.035 0.25C7.275 0.25 0.25 5.207 0.25 9.9015C0.25 13.5785 4.255 15.1215 8.9285 14.1315L9.63216 10.9888L10.0002 9.34375L11.0176 4.79688L12.035 0.25Z" fill="#0050FF"/>
<path d="M19.7505 8.786C19.7505 5.109 15.7455 3.566 11.0725 4.556L9.63216 10.9888L8.98287 13.8906L7.9655 18.4375C12.7255 18.4375 19.7505 13.4805 19.7505 8.786Z" fill="#0050FF"/>
<path d="M9.63216 10.9888L8.9285 14.1315C4.255 15.1215 0.25 13.5785 0.25 9.9015C0.25 5.207 7.275 0.25 12.035 0.25L11.0176 4.79688L10.0002 9.34375L9.63216 10.9888ZM9.63216 10.9888L11.0725 4.556C15.7455 3.566 19.7505 5.109 19.7505 8.786C19.7505 13.4805 12.7255 18.4375 7.9655 18.4375L8.98287 13.8906L9.63216 10.9888Z" stroke="#0050FF" stroke-width="0.5" stroke-linecap="round" stroke-linejoin="round"/>
</svg>
